<svg width="24" height="19" viewBox="0 0 24 19" fill="none" xmlns="http://www.w3.org/2000/svg">
<path d="M1.81446 0H22.1855C22.5459 0.00207696 22.8977 0.150992 23.1965 0.427917C23.4953 0.704842 23.7277 1.09734 23.8642 1.55578C24.0007 2.01422 24.0353 2.518 23.9635 3.00344C23.8917 3.48888 23.7169 3.93417 23.461 4.283L13.2937 18.2591C13.1243 18.4939 12.9228 18.6802 12.7007 18.8074C12.4787 18.9345 12.2405 19 12 19C11.7595 19 11.5213 18.9345 11.2993 18.8074C11.0772 18.6802 10.8757 18.4939 10.7063 18.2591L0.538991 4.283C0.283129 3.93417 0.10826 3.48888 0.0364963 3.00344C-0.0352674 2.518 -0.000703547 2.01422 0.135818 1.55578C0.27234 1.09734 0.504689 0.704842 0.803483 0.427917C1.10228 0.150992 1.4541 0.00207696 1.81446 0Z" fill="#E7DFDD"/>
</svg>
