<svg width="18" height="18" viewBox="0 0 18 18" fill="none" xmlns="http://www.w3.org/2000/svg">
<mask id="path-1-inside-1_106_1025" fill="white">
<path d="M10.7448 12.1142C15.4033 12.0887 17.0618 9.62117 17.0618 7.50534C17.0614 6.93813 16.8666 6.38819 16.51 5.94709C16.1534 5.50599 15.6565 5.20036 15.102 5.08108C15.1984 4.80667 15.2821 4.55496 15.3381 4.36422C15.4619 3.94939 15.4862 3.51123 15.4091 3.08524C15.3319 2.65925 15.1556 2.25742 14.8942 1.91231C14.6307 1.55628 14.2871 1.26729 13.8912 1.06871C13.4953 0.870144 13.0582 0.767575 12.6153 0.769309H4.49093C4.04802 0.767575 3.61092 0.870144 3.21501 1.06871C2.8191 1.26729 2.4755 1.55628 2.21202 1.91231C1.95067 2.25742 1.77429 2.65925 1.69717 3.08524C1.62006 3.51123 1.64437 3.94939 1.76815 4.36422C1.82417 4.55496 1.90996 4.80667 2.00427 5.08108C1.44974 5.20036 0.952802 5.50599 0.596206 5.94709C0.239611 6.38819 0.0448777 6.93813 0.0444336 7.50534C0.0444336 9.62117 1.70292 12.0887 6.36142 12.1142C6.40284 12.3295 6.42443 12.5481 6.42595 12.7672V14.9504C6.43813 15.1398 6.4098 15.3296 6.34284 15.5072C6.27588 15.6848 6.17184 15.846 6.03764 15.9802C5.90345 16.1144 5.74219 16.2185 5.56461 16.2854C5.38703 16.3524 5.19722 16.3807 5.00783 16.3685H4.29878C4.11072 16.3685 3.93037 16.4432 3.7974 16.5762C3.66442 16.7092 3.58972 16.8895 3.58972 17.0776C3.58972 17.2657 3.66442 17.446 3.7974 17.579C3.93037 17.712 4.11072 17.7867 4.29878 17.7867H12.8075C12.9955 17.7867 13.1759 17.712 13.3088 17.579C13.4418 17.446 13.5165 17.2657 13.5165 17.0776C13.5165 16.8895 13.4418 16.7092 13.3088 16.5762C13.1759 16.4432 12.9955 16.3685 12.8075 16.3685H12.1041C11.9143 16.3813 11.7239 16.3535 11.5458 16.2868C11.3676 16.2201 11.2057 16.1162 11.071 15.982C10.9362 15.8477 10.8316 15.6863 10.7643 15.5084C10.6969 15.3305 10.6683 15.1403 10.6803 14.9504V12.7665C10.6818 12.5476 10.7034 12.3292 10.7448 12.1142ZM14.5801 6.44176C14.8622 6.44176 15.1327 6.55381 15.3322 6.75327C15.5316 6.95274 15.6437 7.22326 15.6437 7.50534C15.6437 8.94756 14.5028 10.4834 11.3638 10.6748C11.5208 10.4606 11.7021 10.2652 11.9041 10.0927C13.0344 9.07448 13.9352 7.82756 14.5468 6.43467C14.5581 6.43538 14.5681 6.44176 14.5801 6.44176ZM1.46255 7.50534C1.46255 7.22326 1.5746 6.95274 1.77406 6.75327C1.97353 6.55381 2.24405 6.44176 2.52613 6.44176C2.53819 6.44176 2.54811 6.43538 2.55946 6.43467C3.17106 7.82756 4.07187 9.07448 5.20212 10.0927C5.40411 10.2652 5.58542 10.4606 5.74242 10.6748C2.60342 10.4834 1.46255 8.94756 1.46255 7.50534ZM7.49875 16.3685C7.73317 15.9331 7.85205 15.4449 7.84406 14.9504V12.7672C7.84652 12.0538 7.69361 11.3484 7.39594 10.7001C7.09827 10.0517 6.66299 9.47595 6.12034 9.0128C4.6785 7.63478 3.64335 5.88681 3.12812 3.96006C3.06758 3.75669 3.05593 3.54189 3.09413 3.33316C3.13232 3.12443 3.21929 2.92767 3.34793 2.75892C3.4802 2.58061 3.6526 2.43595 3.85118 2.33667C4.04975 2.23738 4.26892 2.18625 4.49093 2.18742H12.6153C12.8376 2.18658 13.0569 2.23814 13.2555 2.33793C13.4541 2.43772 13.6263 2.58292 13.7583 2.76176C13.887 2.93051 13.9739 3.12726 14.0121 3.33599C14.0503 3.54472 14.0387 3.75952 13.9781 3.9629C13.4624 5.88863 12.4273 7.63557 10.9859 9.0128C10.4433 9.47581 10.008 10.0514 9.71032 10.6997C9.41264 11.3479 9.25972 12.0532 9.26218 12.7665V14.9504C9.25418 15.4449 9.37307 15.9331 9.60749 16.3685H7.49875Z"/>
</mask>
<path d="M10.7448 12.1142C15.4033 12.0887 17.0618 9.62117 17.0618 7.50534C17.0614 6.93813 16.8666 6.38819 16.51 5.94709C16.1534 5.50599 15.6565 5.20036 15.102 5.08108C15.1984 4.80667 15.2821 4.55496 15.3381 4.36422C15.4619 3.94939 15.4862 3.51123 15.4091 3.08524C15.3319 2.65925 15.1556 2.25742 14.8942 1.91231C14.6307 1.55628 14.2871 1.26729 13.8912 1.06871C13.4953 0.870144 13.0582 0.767575 12.6153 0.769309H4.49093C4.04802 0.767575 3.61092 0.870144 3.21501 1.06871C2.8191 1.26729 2.4755 1.55628 2.21202 1.91231C1.95067 2.25742 1.77429 2.65925 1.69717 3.08524C1.62006 3.51123 1.64437 3.94939 1.76815 4.36422C1.82417 4.55496 1.90996 4.80667 2.00427 5.08108C1.44974 5.20036 0.952802 5.50599 0.596206 5.94709C0.239611 6.38819 0.0448777 6.93813 0.0444336 7.50534C0.0444336 9.62117 1.70292 12.0887 6.36142 12.1142C6.40284 12.3295 6.42443 12.5481 6.42595 12.7672V14.9504C6.43813 15.1398 6.4098 15.3296 6.34284 15.5072C6.27588 15.6848 6.17184 15.846 6.03764 15.9802C5.90345 16.1144 5.74219 16.2185 5.56461 16.2854C5.38703 16.3524 5.19722 16.3807 5.00783 16.3685H4.29878C4.11072 16.3685 3.93037 16.4432 3.7974 16.5762C3.66442 16.7092 3.58972 16.8895 3.58972 17.0776C3.58972 17.2657 3.66442 17.446 3.7974 17.579C3.93037 17.712 4.11072 17.7867 4.29878 17.7867H12.8075C12.9955 17.7867 13.1759 17.712 13.3088 17.579C13.4418 17.446 13.5165 17.2657 13.5165 17.0776C13.5165 16.8895 13.4418 16.7092 13.3088 16.5762C13.1759 16.4432 12.9955 16.3685 12.8075 16.3685H12.1041C11.9143 16.3813 11.7239 16.3535 11.5458 16.2868C11.3676 16.2201 11.2057 16.1162 11.071 15.982C10.9362 15.8477 10.8316 15.6863 10.7643 15.5084C10.6969 15.3305 10.6683 15.1403 10.6803 14.9504V12.7665C10.6818 12.5476 10.7034 12.3292 10.7448 12.1142ZM14.5801 6.44176C14.8622 6.44176 15.1327 6.55381 15.3322 6.75327C15.5316 6.95274 15.6437 7.22326 15.6437 7.50534C15.6437 8.94756 14.5028 10.4834 11.3638 10.6748C11.5208 10.4606 11.7021 10.2652 11.9041 10.0927C13.0344 9.07448 13.9352 7.82756 14.5468 6.43467C14.5581 6.43538 14.5681 6.44176 14.5801 6.44176ZM1.46255 7.50534C1.46255 7.22326 1.5746 6.95274 1.77406 6.75327C1.97353 6.55381 2.24405 6.44176 2.52613 6.44176C2.53819 6.44176 2.54811 6.43538 2.55946 6.43467C3.17106 7.82756 4.07187 9.07448 5.20212 10.0927C5.40411 10.2652 5.58542 10.4606 5.74242 10.6748C2.60342 10.4834 1.46255 8.94756 1.46255 7.50534ZM7.49875 16.3685C7.73317 15.9331 7.85205 15.4449 7.84406 14.9504V12.7672C7.84652 12.0538 7.69361 11.3484 7.39594 10.7001C7.09827 10.0517 6.66299 9.47595 6.12034 9.0128C4.6785 7.63478 3.64335 5.88681 3.12812 3.96006C3.06758 3.75669 3.05593 3.54189 3.09413 3.33316C3.13232 3.12443 3.21929 2.92767 3.34793 2.75892C3.4802 2.58061 3.6526 2.43595 3.85118 2.33667C4.04975 2.23738 4.26892 2.18625 4.49093 2.18742H12.6153C12.8376 2.18658 13.0569 2.23814 13.2555 2.33793C13.4541 2.43772 13.6263 2.58292 13.7583 2.76176C13.887 2.93051 13.9739 3.12726 14.0121 3.33599C14.0503 3.54472 14.0387 3.75952 13.9781 3.9629C13.4624 5.88863 12.4273 7.63557 10.9859 9.0128C10.4433 9.47581 10.008 10.0514 9.71032 10.6997C9.41264 11.3479 9.25972 12.0532 9.26218 12.7665V14.9504C9.25418 15.4449 9.37307 15.9331 9.60749 16.3685H7.49875Z" fill="#E7DFDD"/>
<path d="M10.7448 12.1142L10.7284 9.11425L8.26447 9.12775L7.79886 11.5473L10.7448 12.1142ZM17.0618 7.50534H20.0618V7.50299L17.0618 7.50534ZM15.102 5.08108L12.2717 4.08644L11.143 7.29814L14.4711 8.014L15.102 5.08108ZM15.3381 4.36422L12.4633 3.50645L12.4596 3.51888L15.3381 4.36422ZM14.8942 1.91231L12.4827 3.69691L12.4926 3.71023L12.5026 3.72344L14.8942 1.91231ZM12.6153 0.769309V3.76933L12.6271 3.76929L12.6153 0.769309ZM4.49093 0.769309L4.47918 3.76931H4.49093V0.769309ZM2.21202 1.91231L4.60363 3.72344L4.61364 3.71023L4.6235 3.69691L2.21202 1.91231ZM1.76815 4.36422L4.64662 3.51887L4.64291 3.50646L1.76815 4.36422ZM2.00427 5.08108L2.63512 8.014L5.94013 7.30311L4.8414 4.10604L2.00427 5.08108ZM0.0444336 7.50534L-2.95557 7.50299V7.50534H0.0444336ZM6.36142 12.1142L9.3074 11.5474L8.84188 9.12775L6.37786 9.11425L6.36142 12.1142ZM6.42595 12.7672H9.42595V12.7569L9.42588 12.7465L6.42595 12.7672ZM6.42595 14.9504H3.42595V15.0468L3.43214 15.143L6.42595 14.9504ZM5.00783 16.3685L5.20043 13.3747L5.10423 13.3685H5.00783V16.3685ZM12.1041 16.3685V13.3685H12.0031L11.9023 13.3753L12.1041 16.3685ZM10.6803 14.9504L13.6743 15.1402L13.6803 15.0454V14.9504H10.6803ZM10.6803 12.7665L7.68037 12.7453L7.68029 12.7559V12.7665H10.6803ZM14.5801 6.44176V3.44176V6.44176ZM11.3638 10.6748L8.94388 8.90173L5.16556 14.0584L11.5464 13.6693L11.3638 10.6748ZM11.9041 10.0927L13.8524 12.3739L13.8826 12.3482L13.9121 12.3216L11.9041 10.0927ZM14.5468 6.43467L14.7339 3.44051L12.6424 3.30979L11.7999 5.22855L14.5468 6.43467ZM1.46255 7.50534H4.46255H1.46255ZM2.52613 6.44176L2.52613 3.44176L2.52613 6.44176ZM2.55946 6.43467L5.30633 5.22855L4.46382 3.30979L2.37232 3.44051L2.55946 6.43467ZM5.20212 10.0927L3.19414 12.3216L3.22363 12.3482L3.2538 12.3739L5.20212 10.0927ZM5.74242 10.6748L5.55979 13.6693L11.9407 14.0584L8.16236 8.90173L5.74242 10.6748ZM7.49875 16.3685L4.85723 14.9464L2.47652 19.3685H7.49875V16.3685ZM7.84406 14.9504H4.84406V14.9747L4.84445 14.9989L7.84406 14.9504ZM7.84406 12.7672L4.84406 12.7569V12.7672H7.84406ZM6.12034 9.0128L4.04758 11.1816L4.10857 11.2399L4.17274 11.2947L6.12034 9.0128ZM3.12812 3.96006L6.02629 3.18507L6.01542 3.14441L6.00341 3.10408L3.12812 3.96006ZM3.34793 2.75892L5.73375 4.57768L5.74567 4.56204L5.75739 4.54624L3.34793 2.75892ZM4.49093 2.18742L4.47511 5.18738L4.48302 5.18742H4.49093V2.18742ZM12.6153 2.18742V5.18744L12.6267 5.1874L12.6153 2.18742ZM13.7583 2.76176L11.3444 4.54308L11.3583 4.56191L11.3725 4.58051L13.7583 2.76176ZM13.9781 3.9629L11.1028 3.10692L11.091 3.14673L11.0802 3.18685L13.9781 3.9629ZM10.9859 9.0128L12.9332 11.2949L12.9974 11.2401L13.0584 11.1819L10.9859 9.0128ZM9.26218 12.7665H12.2622L12.2622 12.7562L9.26218 12.7665ZM9.26218 14.9504L12.2618 14.9989L12.2622 14.9747V14.9504H9.26218ZM9.60749 16.3685V19.3685H14.6297L12.249 14.9464L9.60749 16.3685ZM10.7613 15.1142C13.6086 15.0986 15.9608 14.3287 17.6413 12.8377C19.3294 11.3399 20.0618 9.35271 20.0618 7.50534H14.0618C14.0618 7.7738 13.965 8.07828 13.6592 8.3496C13.3458 8.62762 12.5396 9.10433 10.7284 9.11425L10.7613 15.1142ZM20.0618 7.50299C20.0608 6.25011 19.6307 5.03537 18.843 4.06104L14.177 7.83313C14.1026 7.74101 14.0619 7.62615 14.0618 7.50769L20.0618 7.50299ZM18.843 4.06104C18.0554 3.08672 16.9577 2.41162 15.7328 2.14816L14.4711 8.014C14.3553 7.98909 14.2515 7.92526 14.177 7.83313L18.843 4.06104ZM17.9323 6.07571C18.0354 5.78241 18.1389 5.47403 18.2165 5.20957L12.4596 3.51888C12.4253 3.63589 12.3614 3.83094 12.2717 4.08644L17.9323 6.07571ZM18.2128 5.22199C18.4714 4.3556 18.5221 3.4405 18.3611 2.55084L12.457 3.61964C12.4502 3.58195 12.4524 3.54317 12.4633 3.50646L18.2128 5.22199ZM18.3611 2.55084C18.2 1.66117 17.8317 0.821952 17.2858 0.101174L12.5026 3.72344C12.4795 3.6929 12.4639 3.65734 12.457 3.61964L18.3611 2.55084ZM17.3057 0.12771C16.7621 -0.606893 16.0531 -1.20318 15.2362 -1.6129L12.5463 3.75033C12.5212 3.73775 12.4994 3.71945 12.4827 3.69691L17.3057 0.12771ZM15.2362 -1.6129C14.4193 -2.02261 13.5174 -2.23425 12.6036 -2.23067L12.6271 3.76929C12.599 3.7694 12.5713 3.7629 12.5463 3.75033L15.2362 -1.6129ZM12.6153 -2.23069H4.49093V3.76931H12.6153V-2.23069ZM4.50268 -2.23067C3.5888 -2.23425 2.68692 -2.02261 1.87003 -1.6129L4.55998 3.75033C4.53491 3.7629 4.50723 3.7694 4.47918 3.76929L4.50268 -2.23067ZM1.87003 -1.6129C1.05314 -1.20318 0.344184 -0.606892 -0.199454 0.12771L4.6235 3.69691C4.60681 3.71945 4.58505 3.73775 4.55998 3.75033L1.87003 -1.6129ZM-0.179588 0.101174C-0.725421 0.821949 -1.09379 1.66117 -1.25485 2.55084L4.64919 3.61964C4.64237 3.65734 4.62676 3.6929 4.60363 3.72344L-0.179588 0.101174ZM-1.25485 2.55084C-1.4159 3.44051 -1.36512 4.3556 -1.10661 5.22199L4.64291 3.50646C4.65386 3.54317 4.65602 3.58194 4.64919 3.61964L-1.25485 2.55084ZM-1.11029 5.20957C-1.03125 5.47867 -0.921112 5.79933 -0.832862 6.05612L4.8414 4.10604C4.74104 3.81402 4.67959 3.63125 4.64659 3.51888L-1.11029 5.20957ZM1.37341 2.14816C0.148541 2.41162 -0.949117 3.08672 -1.73678 4.06104L2.92919 7.83313C2.85472 7.92526 2.75094 7.98909 2.63512 8.014L1.37341 2.14816ZM-1.73678 4.06104C-2.52445 5.03537 -2.95458 6.25011 -2.95557 7.50299L3.04443 7.50769C3.04434 7.62615 3.00367 7.74101 2.92919 7.83313L-1.73678 4.06104ZM-2.95557 7.50534C-2.95557 9.35271 -2.22314 11.3399 -0.535069 12.8377C1.14546 14.3287 3.49768 15.0986 6.34499 15.1142L6.37786 9.11425C4.56666 9.10433 3.76039 8.62762 3.44705 8.3496C3.14125 8.07828 3.04443 7.7738 3.04443 7.50534H-2.95557ZM3.41545 12.681C3.42223 12.7162 3.42577 12.7521 3.42602 12.788L9.42588 12.7465C9.4231 12.3441 9.38344 11.9427 9.3074 11.5474L3.41545 12.681ZM3.42595 12.7672V14.9504H9.42595V12.7672H3.42595ZM3.43214 15.143C3.41694 14.9069 3.45227 14.6702 3.53576 14.4488L9.14992 16.5657C9.36733 15.9891 9.45932 15.3728 9.41976 14.7578L3.43214 15.143ZM3.53576 14.4488C3.61926 14.2273 3.74899 14.0263 3.91632 13.8589L8.15896 18.1016C8.59468 17.6658 8.93251 17.1422 9.14992 16.5657L3.53576 14.4488ZM3.91632 13.8589C4.08366 13.6916 4.28474 13.5619 4.50617 13.4784L6.62305 19.0925C7.19963 18.8751 7.72324 18.5373 8.15896 18.1016L3.91632 13.8589ZM4.50617 13.4784C4.72759 13.3949 4.96427 13.3595 5.20043 13.3747L4.81524 19.3624C5.43018 19.4019 6.04648 19.3099 6.62305 19.0925L4.50617 13.4784ZM5.00783 13.3685H4.29878V19.3685H5.00783V13.3685ZM4.29878 13.3685C3.31508 13.3685 2.37167 13.7593 1.67608 14.4549L5.91872 18.6975C5.48908 19.1272 4.90637 19.3685 4.29878 19.3685V13.3685ZM1.67608 14.4549C0.980494 15.1505 0.589719 16.0939 0.589719 17.0776H6.58972C6.58972 17.6852 6.34835 18.2679 5.91872 18.6975L1.67608 14.4549ZM0.589719 17.0776C0.589719 18.0613 0.980494 19.0047 1.67608 19.7003L5.91872 15.4577C6.34835 15.8873 6.58972 16.47 6.58972 17.0776H0.589719ZM1.67608 19.7003C2.37167 20.3959 3.31508 20.7867 4.29878 20.7867V14.7867C4.90637 14.7867 5.48908 15.028 5.91872 15.4577L1.67608 19.7003ZM4.29878 20.7867H12.8075V14.7867H4.29878V20.7867ZM12.8075 20.7867C13.7912 20.7867 14.7346 20.3959 15.4302 19.7003L11.1875 15.4577C11.6172 15.028 12.1999 14.7867 12.8075 14.7867V20.7867ZM15.4302 19.7003C16.1257 19.0047 16.5165 18.0613 16.5165 17.0776H10.5165C10.5165 16.47 10.7579 15.8873 11.1875 15.4577L15.4302 19.7003ZM16.5165 17.0776C16.5165 16.0939 16.1257 15.1505 15.4302 14.4549L11.1875 18.6975C10.7579 18.2679 10.5165 17.6852 10.5165 17.0776H16.5165ZM15.4302 14.4549C14.7346 13.7593 13.7912 13.3685 12.8075 13.3685V19.3685C12.1999 19.3685 11.6172 19.1272 11.1875 18.6975L15.4302 14.4549ZM12.8075 13.3685H12.1041V19.3685H12.8075V13.3685ZM11.9023 13.3753C12.1385 13.3594 12.3754 13.3941 12.5971 13.4771L10.4944 19.0966C11.0725 19.3129 11.6901 19.4033 12.3058 19.3618L11.9023 13.3753ZM12.5971 13.4771C12.8189 13.56 13.0203 13.6894 13.1881 13.8564L8.95389 18.1075C9.39118 18.5431 9.91639 18.8803 10.4944 19.0966L12.5971 13.4771ZM13.1881 13.8564C13.3558 14.0235 13.4859 14.2244 13.5698 14.4458L7.95872 16.5709C8.17732 17.1481 8.5166 17.672 8.95389 18.1075L13.1881 13.8564ZM13.5698 14.4458C13.6536 14.6672 13.6893 14.904 13.6743 15.1402L7.6863 14.7606C7.64725 15.3766 7.74013 15.9938 7.95872 16.5709L13.5698 14.4458ZM13.6803 14.9504V12.7665H7.68029V14.9504H13.6803ZM13.6802 12.7878C13.6805 12.752 13.684 12.7163 13.6908 12.6811L7.79886 11.5473C7.72287 11.9422 7.68321 12.3432 7.68037 12.7453L13.6802 12.7878ZM14.5801 9.44176C14.0665 9.44176 13.574 9.23774 13.2109 8.8746L17.4535 4.63195C16.6914 3.86988 15.6578 3.44176 14.5801 3.44176V9.44176ZM13.2109 8.8746C12.8477 8.51145 12.6437 8.01892 12.6437 7.50534H18.6437C18.6437 6.42761 18.2156 5.39402 17.4535 4.63195L13.2109 8.8746ZM12.6437 7.50534C12.6437 7.46855 12.6516 7.41597 12.6765 7.36012C12.7033 7.30001 12.7304 7.27964 12.7143 7.29357C12.6794 7.32394 12.3124 7.6114 11.1812 7.68039L11.5464 13.6693C13.5543 13.5468 15.3272 12.9706 16.6474 11.8247C18.0092 10.6426 18.6437 9.05821 18.6437 7.50534H12.6437ZM13.7838 12.4479C13.8037 12.4207 13.8268 12.3959 13.8524 12.3739L9.95581 7.81144C9.5775 8.13454 9.23792 8.50041 8.94388 8.90173L13.7838 12.4479ZM13.9121 12.3216C15.3584 11.0187 16.511 9.42313 17.2936 7.64078L11.7999 5.22855C11.3593 6.23199 10.7104 7.13026 9.89615 7.86378L13.9121 12.3216ZM14.3596 9.42883C14.1124 9.41337 13.918 9.36984 13.808 9.34155C13.7526 9.32732 13.7095 9.31449 13.6887 9.30817C13.678 9.30492 13.6697 9.30235 13.6674 9.30161C13.6663 9.30127 13.6651 9.30091 13.6661 9.30122C13.6665 9.30134 13.6686 9.30198 13.671 9.30275C13.6792 9.30529 13.7115 9.31538 13.7527 9.32701C13.7955 9.33909 13.858 9.35573 13.9341 9.37228C14.0881 9.40575 14.3105 9.44176 14.5801 9.44176V3.44176C14.8437 3.44176 15.0603 3.47697 15.2087 3.50922C15.282 3.52516 15.3417 3.54109 15.3818 3.55239C15.4203 3.56325 15.4499 3.57251 15.4553 3.5742C15.4571 3.57476 15.4585 3.57519 15.4582 3.57511C15.4579 3.57501 15.4584 3.57518 15.458 3.57503C15.4578 3.57499 15.4576 3.57492 15.4574 3.57484C15.4568 3.57467 15.456 3.5744 15.4549 3.57408C15.4512 3.57292 15.4416 3.56994 15.4296 3.56627C15.406 3.55914 15.3602 3.54552 15.3022 3.5306C15.1868 3.50091 14.9869 3.45632 14.7339 3.44051L14.3596 9.42883ZM4.46255 7.50534C4.46255 8.01891 4.25853 8.51145 3.89538 8.8746L-0.347254 4.63195C-1.10932 5.39402 -1.53745 6.42761 -1.53745 7.50534H4.46255ZM3.89538 8.8746C3.53223 9.23775 3.0397 9.44176 2.52613 9.44176L2.52613 3.44176C1.44841 3.44176 0.414817 3.86988 -0.347254 4.63195L3.89538 8.8746ZM2.52613 9.44176C2.79575 9.44176 3.01816 9.40575 3.17213 9.37228C3.24826 9.35573 3.31072 9.33908 3.35352 9.32701C3.39476 9.31537 3.42709 9.30528 3.43523 9.30275C3.43771 9.30198 3.43976 9.30133 3.44016 9.30121C3.44113 9.30091 3.44 9.30126 3.43888 9.30161C3.43652 9.30234 3.4283 9.30491 3.41756 9.30817C3.39673 9.31448 3.35364 9.32732 3.2983 9.34155C3.18828 9.36984 2.99389 9.41337 2.74659 9.42883L2.37232 3.44051C2.11935 3.45632 1.91947 3.50091 1.80402 3.5306C1.74597 3.54553 1.70018 3.55915 1.67666 3.56628C1.66457 3.56994 1.655 3.57293 1.65129 3.57409C1.65025 3.57441 1.64938 3.57468 1.64886 3.57484C1.64859 3.57493 1.64837 3.575 1.64823 3.57504C1.64777 3.57518 1.64831 3.57502 1.64799 3.57512C1.64772 3.5752 1.64909 3.57477 1.65089 3.57421C1.65634 3.57252 1.68595 3.56326 1.72445 3.5524C1.76451 3.54109 1.82421 3.52516 1.89753 3.50922C2.04589 3.47697 2.26255 3.44176 2.52613 3.44176V9.44176ZM-0.18741 7.64078C0.595198 9.42314 1.74787 11.0187 3.19414 12.3216L7.21009 7.86378C6.39586 7.13026 5.74692 6.23199 5.30633 5.22855L-0.18741 7.64078ZM3.2538 12.3739C3.27948 12.3959 3.30252 12.4207 3.32247 12.4479L8.16236 8.90173C7.86832 8.50041 7.52874 8.13454 7.15043 7.81144L3.2538 12.3739ZM5.92505 7.68039C4.79387 7.6114 4.42688 7.32394 4.3919 7.29357C4.37584 7.27964 4.4029 7.30001 4.42971 7.36012C4.45462 7.41597 4.46255 7.46855 4.46255 7.50534H-1.53745C-1.53745 9.05821 -0.902997 10.6426 0.45882 11.8247C1.77902 12.9706 3.55197 13.5468 5.55979 13.6693L5.92505 7.68039ZM10.1403 17.7906C10.6178 16.9037 10.86 15.9091 10.8437 14.9019L4.84445 14.9989C4.84416 14.9806 4.84856 14.9626 4.85723 14.9464L10.1403 17.7906ZM10.8441 14.9504V12.7672H4.84406V14.9504H10.8441ZM10.844 12.7776C10.848 11.6286 10.6017 10.4926 10.1223 9.44835L4.66955 11.9518C4.78548 12.2043 4.84504 12.479 4.84408 12.7569L10.844 12.7776ZM10.1223 9.44835C9.64292 8.40415 8.94189 7.47687 8.06794 6.73094L4.17274 11.2947C4.38409 11.475 4.55362 11.6993 4.66955 11.9518L10.1223 9.44835ZM8.19311 6.84401C7.149 5.84612 6.3994 4.58033 6.02629 3.18507L0.229954 4.73505C0.887308 7.1933 2.208 9.42345 4.04758 11.1816L8.19311 6.84401ZM6.00341 3.10408C6.07769 3.35359 6.09198 3.61711 6.04512 3.87319L0.143132 2.79313C0.0198764 3.46666 0.057463 4.15979 0.252832 4.81604L6.00341 3.10408ZM6.04512 3.87319C5.99826 4.12926 5.89157 4.37065 5.73375 4.57768L0.962114 0.940162C0.547001 1.4847 0.266388 2.1196 0.143132 2.79313L6.04512 3.87319ZM5.75739 4.54624C5.609 4.74628 5.41559 4.90856 5.19282 5.01995L2.50954 -0.346616C1.88962 -0.0366558 1.3514 0.414937 0.938474 0.971599L5.75739 4.54624ZM5.19282 5.01995C4.97005 5.13133 4.72418 5.18869 4.47511 5.18738L4.50675 -0.812537C3.81366 -0.816192 3.12946 -0.656576 2.50954 -0.346616L5.19282 5.01995ZM4.49093 5.18742H12.6153V-0.812579H4.49093V5.18742ZM12.6267 5.1874C12.3774 5.18835 12.1313 5.1305 11.9085 5.01855L14.6024 -0.342684C13.9825 -0.654211 13.2978 -0.815189 12.6039 -0.812557L12.6267 5.1874ZM11.9085 5.01855C11.6857 4.9066 11.4925 4.7437 11.3444 4.54308L16.1722 0.980433C15.7602 0.422144 15.2224 -0.0311559 14.6024 -0.342684L11.9085 5.01855ZM11.3725 4.58051C11.2147 4.37349 11.108 4.1321 11.0611 3.87602L16.9631 2.79596C16.8398 2.12243 16.5592 1.48753 16.1441 0.942998L11.3725 4.58051ZM11.0611 3.87602C11.0143 3.61994 11.0285 3.35642 11.1028 3.10692L16.8534 4.81888C17.0488 4.16263 17.0864 3.46951 16.9631 2.79596L11.0611 3.87602ZM11.0802 3.18685C10.7068 4.58138 9.9572 5.84642 8.91341 6.84374L13.0584 11.1819C14.8974 9.42471 16.218 7.19589 16.876 4.73894L11.0802 3.18685ZM9.0386 6.73068C8.16459 7.47647 7.46348 8.40365 6.98402 9.44777L12.4366 11.9516C12.5525 11.6992 12.7219 11.4752 12.9332 11.2949L9.0386 6.73068ZM6.98402 9.44777C6.50455 10.4919 6.25824 11.6279 6.26219 12.7769L12.2622 12.7562C12.2612 12.4785 12.3207 12.204 12.4366 11.9516L6.98402 9.44777ZM6.26218 12.7665V14.9504H12.2622V12.7665H6.26218ZM6.26257 14.9019C6.24629 15.9091 6.48846 16.9037 6.96597 17.7906L12.249 14.9464C12.2577 14.9626 12.2621 14.9806 12.2618 14.9989L6.26257 14.9019ZM9.60749 13.3685H7.49875V19.3685H9.60749V13.3685Z" fill="#E7DFDD" mask="url(#path-1-inside-1_106_1025)"/>
</svg>
