<svg width="20" height="19" viewBox="0 0 20 19" fill="none" xmlns="http://www.w3.org/2000/svg">
<path d="M14.2802 17.0147V15.334C14.2802 14.4425 13.9315 13.5875 13.311 12.9571C12.6905 12.3267 11.8488 11.9725 10.9712 11.9725H4.35337C3.47578 11.9725 2.63414 12.3267 2.0136 12.9571C1.39305 13.5875 1.04443 14.4425 1.04443 15.334V17.0147" stroke="url(#paint0_linear_106_1017)" stroke-width="2" stroke-linecap="round" stroke-linejoin="round"/>
<path d="M7.34707 8.19091C9.43561 8.19091 11.1287 6.78 11.1287 5.03955C11.1287 3.2991 9.43561 1.88818 7.34707 1.88818C5.25853 1.88818 3.56543 3.2991 3.56543 5.03955C3.56543 6.78 5.25853 8.19091 7.34707 8.19091Z" stroke="url(#paint1_linear_106_1017)" stroke-width="2" stroke-linecap="round" stroke-linejoin="round"/>
<path d="M18.692 17.0147V15.2968C18.6914 14.5355 18.4435 13.7959 17.9872 13.1943C17.5309 12.5926 16.892 12.1629 16.1709 11.9725" stroke="url(#paint2_linear_106_1017)" stroke-width="2" stroke-linecap="round" stroke-linejoin="round"/>
<path d="M13.6499 1.88818C14.3711 2.06734 15.0103 2.4743 15.4668 3.04489C15.9232 3.61547 16.171 4.31724 16.171 5.03955C16.171 5.76186 15.9232 6.46362 15.4668 7.03421C15.0103 7.6048 14.3711 8.01175 13.6499 8.19091" stroke="url(#paint3_linear_106_1017)" stroke-width="2" stroke-linecap="round" stroke-linejoin="round"/>
<defs>
<linearGradient id="paint0_linear_106_1017" x1="16.8864" y1="4.34488" x2="15.3473" y2="18.4693" gradientUnits="userSpaceOnUse">
<stop stop-color="#E7DFDD"/>
</linearGradient>
<linearGradient id="paint1_linear_106_1017" x1="12.618" y1="-7.64638" x2="8.58853" y2="9.25827" gradientUnits="userSpaceOnUse">
<stop stop-color="#E7DFDD"/>
</linearGradient>
<linearGradient id="paint2_linear_106_1017" x1="19.1884" y1="4.34488" x2="13.0283" y2="15.1129" gradientUnits="userSpaceOnUse">
<stop stop-color="#E7DFDD"/>
</linearGradient>
<linearGradient id="paint3_linear_106_1017" x1="16.6674" y1="-7.64638" x2="8.21461" y2="4.17421" gradientUnits="userSpaceOnUse">
<stop stop-color="#E7DFDD"/>
</linearGradient>
</defs>
</svg>
