<?xml version="1.0" encoding="UTF-8"?>
<svg xmlns="http://www.w3.org/2000/svg" xmlns:xlink="http://www.w3.org/1999/xlink" width="683px" height="683px" viewBox="0 0 384 384" version="1.1">
  <g id="surface1">
    <path style=" stroke:none;fill-rule:nonzero;fill:rgb(0%,0%,0%);fill-opacity:1;" d="M 306.75 2.175781 C 297.449219 5.175781 295.050781 6.976562 277.5 24.449219 L 260.625 41.25 L 342.75 123.375 L 358.574219 107.625 C 375.449219 90.824219 379.351562 85.875 381.824219 78.074219 C 385.199219 67.125 384.449219 57.074219 379.351562 46.5 C 376.5 40.5 375.449219 39.226562 360.074219 23.925781 C 342.824219 6.675781 339.824219 4.5 330 1.875 C 324.226562 0.300781 311.925781 0.449219 306.75 2.175781 Z M 306.75 2.175781 " />
    <path style=" stroke:none;fill-rule:nonzero;fill:rgb(0%,0%,0%);fill-opacity:1;" d="M 130.726562 171.226562 L 24.074219 277.875 L 11.925781 326.625 C 3 362.398438 -0.148438 375.976562 0.300781 377.476562 C 0.976562 380.175781 3.75 383.023438 6.375 383.699219 C 8.398438 384.226562 102.074219 361.5 105.75 359.550781 C 106.800781 359.023438 155.324219 310.875 213.601562 252.601562 L 319.5 146.625 L 237.375 64.5 Z M 130.726562 171.226562 " />
  </g>
</svg>