<svg width="30" height="45" viewBox="0 0 30 45" fill="none" xmlns="http://www.w3.org/2000/svg">
<path d="M11.8059 34.0846C10.817 34.2597 9.9208 34.9396 9.48815 35.8358C9.29242 36.2375 7.5103 43.2733 7.5 43.6441C7.5 43.7884 7.64422 44.0356 7.85024 44.2416L8.20049 44.5919H14.886C22.2926 44.5919 21.8909 44.6331 22.1896 43.912C22.3235 43.5926 22.2823 43.3557 21.4067 39.8533C20.8917 37.8033 20.3869 35.9491 20.2736 35.7328C19.9748 35.1456 19.398 34.6099 18.7387 34.3009C18.1618 34.033 18.1618 34.033 15.226 34.0124C13.6087 34.0021 12.0738 34.033 11.8059 34.0846Z" fill="#E0E41A"/>
<path d="M0.731899 0.10305C0.258041 0.298775 0.175631 0.607813 0.0623166 2.54445C-0.0716 4.79013 0.0211115 9.3639 0.237438 11.589C0.855514 18.0067 2.50372 22.7762 5.04813 25.506C6.91266 27.5147 8.45785 29.4514 9.61159 31.2438C10.0236 31.8928 10.1679 32.037 10.3327 31.9958C11.7955 31.6249 11.9706 31.6146 15.2258 31.6455C18.3368 31.6765 18.4913 31.6971 19.0682 31.9237C19.4081 32.0576 19.7068 32.1194 19.748 32.0782C19.7996 32.0267 20.2013 31.4292 20.6649 30.7493C21.6744 29.2453 23.0341 27.5456 24.466 25.9695C25.0635 25.3206 25.7743 24.4553 26.0524 24.0432C28.0818 21.0249 29.3591 16.5336 29.8639 10.6103C30.0184 8.87973 30.0493 3.21404 29.9154 1.69975C29.833 0.731428 29.8124 0.659319 29.493 0.339979L29.1531 3.8147e-05L15.0507 0.0103378C7.15989 0.0103378 0.855514 0.0515442 0.731899 0.10305Z" fill="#E0E41A"/>
</svg>
